<svg xmlns="http://www.w3.org/2000/svg" viewBox="0 0 575.43307 113.38583">
    <defs>
        <style>
            .a{fill:#e88da5}.b{fill:#2b295d}
        </style>
    </defs>
    <path class="a" d="M567.708 52.272a37.913 37.913 0 0 0-23.096-15.996 38.609 38.609 0 0 0-16.097-.064l4.876-15.218h32.584l5.89-18.634H519.83v.017L501.607 59.25a36.055 36.055 0 0 0-1.214 3.78l-.01.029-.823 2.568h19.918a19.148 19.148 0 0 1 7.56-7.744 18.229 18.229 0 0 1 13.065-1.826 17.916 17.916 0 0 1 10.874 7.399 17.655 17.655 0 0 1 2.803 12.858 18.06 18.06 0 0 1-6.976 11.312 18.788 18.788 0 0 1-13.012 3.75 22.463 22.463 0 0 1-12.929-5.984 18.353 18.353 0 0 1-4.531-6.749h-19.337a36.944 36.944 0 0 0 10.38 20.353 40.462 40.462 0 0 0 24.49 11.83 38.486 38.486 0 0 0 26.744-7.382 37.596 37.596 0 0 0 9.099-51.172z"/>
    <path class="b" d="M463.647 78.651c-9.113 0-15.229-7.212-15.229-16.949 0-9.615 6.116-16.95 15.229-16.95v.003h32.216L482.346 2.571H463.66l7.545 23.55h-7.56v.048c-.232-.004-.454-.047-.689-.047-19.157 0-33.81 15.867-33.81 35.46 0 19.833 14.884 35.702 34.272 35.702.079 0 .15-.016.228-.016v.016h33.348V78.651zm-189.312 0c-9.113 0-15.229-7.212-15.229-16.949 0-9.615 6.116-16.95 15.229-16.95v.003h32.216L293.034 2.571h-18.686l7.546 23.55h-7.56v.048c-.233-.004-.454-.047-.689-.047-19.157 0-33.81 15.867-33.81 35.46 0 19.833 14.883 35.702 34.272 35.702.078 0 .15-.016.228-.016v.016h33.347V78.651zM137.996 65.298c0 9.112-7.213 15.568-16.949 15.568-9.615 0-16.95-6.456-16.95-15.568h.003v-38.84H85.467v39.53c0 19.157 15.867 33.81 35.46 33.81 19.833 0 35.702-14.884 35.702-34.273V26.457h-18.633zm43.834-6.918c0-9.112 7.212-15.568 16.948-15.568 9.616 0 16.95 6.456 16.95 15.569h-.003v38.84h18.633V57.69c0-19.158-15.867-33.81-35.46-33.81-19.833 0-35.702 14.883-35.702 34.272V97.22h18.633zm166.91-15.228c.313 0 .6.06.907.073V23.917c-.264-.005-.521-.036-.787-.036-19.832 0-35.701 14.883-35.701 34.272V97.22h18.633V58.38c0-9.113 7.212-15.23 16.949-15.23zM58.934 2.571V39.45H20.102V2.571H1.43v94.713h18.672V58.122h38.832v39.162h18.672V2.571H58.934zM417.76 68.23h6.182a30.185 30.185 0 0 0 .492-5.632c0-21.63-15.234-38.78-36-38.78-20.762 0-35.75 18.302-35.75 38.14 0 21.119 16.586 37.63 36.121 37.63a32.216 32.216 0 0 0 19.41-6.4c5.7-4.041 10.426-10.092 13.74-17.876H401.86a16.983 16.983 0 0 1-13.301 6.83c-7.895 0-14.525-5.844-16.926-13.913h46.128zm-29.2-26.968c7.481 0 13.882 5.22 16.576 12.632h-33.152c2.694-7.412 9.095-12.632 16.576-12.632z"/>
</svg>
